<?xml version="1.0" encoding="UTF-8"?><svg id="Layer_2" xmlns="http://www.w3.org/2000/svg" viewBox="0 0 921.25 522.44"><defs><style>.cls-1{fill:#606060;}.cls-1,.cls-2,.cls-3{stroke-width:0px;}.cls-4,.cls-5,.cls-6,.cls-7,.cls-8{stroke-linecap:round;stroke-linejoin:round;}.cls-4,.cls-5,.cls-7,.cls-8{stroke:#323234;}.cls-4,.cls-6{fill:none;}.cls-5,.cls-3{fill:#f5f5f5;}.cls-6{stroke:#000;}.cls-7{fill:#fe8e14;}.cls-8{fill:#6ac4bb;}</style></defs><g id="Layer_1-2"><rect class="cls-3" x="707.29" width="213.96" height="160"/><g id="Computers-Devices-Electronics_Scan_Print_printer"><g id="Group_209"><g id="printer"><path id="Shape_1150" class="cls-4" d="m828.2,61.74h10.29c1.27,0,2.4.77,2.87,1.95l5.42,13.53h-65.02l5.42-13.53c.47-1.18,1.61-1.95,2.87-1.95h10.29"/><path id="Shape_1148" class="cls-4" d="m828.2,67.93h-27.87v-21.67h21.67l6.19,6.19v15.48h0Z"/><path id="Shape_1147" class="cls-4" d="m797.24,67.93h34.06"/><path id="Shape_1149" class="cls-4" d="m796.47,101.99h-8.88c-1.56,0-2.88-1.16-3.07-2.71l-2.76-22.06h65.02l-2.76,22.06c-.19,1.55-1.51,2.71-3.07,2.71h-10.42"/><path id="Shape_1151" class="cls-8" d="m798.79,92.7h29.41l6.19,24.77h-41.8l6.19-24.77h0Z"/><path id="Shape_1152" class="cls-4" d="m838.38,82.41c.92,0,1.67.75,1.67,1.67s-.75,1.67-1.67,1.67-1.67-.75-1.67-1.67.75-1.67,1.67-1.67"/><path id="Shape_1153" class="cls-4" d="m838.38,90.14c.92,0,1.67.75,1.67,1.67s-.75,1.67-1.67,1.67-1.67-.75-1.67-1.67.75-1.67,1.67-1.67"/><path id="Shape_1154" class="cls-4" d="m812.72,98.9h7.74"/><path id="Shape_1155" class="cls-4" d="m803.43,105.09h18.58"/><path id="Shape_1156" class="cls-4" d="m800.34,111.28h23.22"/></g></g></g><path class="cls-2" d="m774.55,182.58c-1.11,0-1.98-.34-2.62-1.01s-.96-1.61-.96-2.81.3-2.17.89-2.88,1.39-1.07,2.4-1.07c.94,0,1.68.31,2.23.93.55.62.82,1.43.82,2.44v.72h-5.16c.02.88.24,1.55.67,2s1.02.68,1.78.68c.81,0,1.6-.17,2.39-.51v1.01c-.4.17-.78.3-1.14.37-.36.08-.79.11-1.29.11Zm-.31-6.82c-.6,0-1.08.2-1.44.59s-.57.93-.63,1.63h3.92c0-.72-.16-1.26-.48-1.64-.32-.38-.77-.57-1.37-.57Z"/><path class="cls-2" d="m785.05,179.78c0,.88-.32,1.57-.96,2.06-.64.49-1.5.74-2.6.74-1.19,0-2.1-.15-2.73-.46v-1.12c.41.17.86.31,1.34.41.48.1.96.15,1.44.15.77,0,1.36-.15,1.75-.44.39-.29.59-.7.59-1.23,0-.35-.07-.63-.21-.85-.14-.22-.37-.43-.7-.61s-.82-.4-1.49-.64c-.93-.33-1.59-.73-1.99-1.18s-.6-1.05-.6-1.78.29-1.38.87-1.84c.58-.46,1.34-.68,2.3-.68s1.91.18,2.74.55l-.36,1.01c-.83-.35-1.63-.52-2.41-.52-.62,0-1.1.13-1.44.4-.35.26-.52.63-.52,1.1,0,.35.06.63.19.85.13.22.34.42.65.61.3.19.77.39,1.39.61,1.05.37,1.77.77,2.16,1.2s.59.98.59,1.67Z"/><path class="cls-2" d="m791.38,173.34c-1.1,0-1.96.37-2.6,1.1-.64.73-.95,1.73-.95,3s.31,2.32.92,3.03c.61.71,1.49,1.07,2.62,1.07.7,0,1.49-.13,2.39-.38v1.02c-.69.26-1.55.39-2.56.39-1.47,0-2.61-.45-3.41-1.34s-1.2-2.16-1.2-3.81c0-1.03.19-1.93.58-2.71s.94-1.37,1.67-1.79,1.58-.63,2.57-.63c1.05,0,1.96.19,2.75.57l-.49,1c-.76-.36-1.51-.53-2.27-.53Z"/><path class="cls-2" d="m795.93,182.44v-9.99h1.16v8.94h4.41v1.05h-5.57Z"/><path class="cls-2" d="m812.47,179.78c0,.88-.32,1.57-.96,2.06-.64.49-1.5.74-2.6.74-1.18,0-2.1-.15-2.73-.46v-1.12c.41.17.86.31,1.34.41.48.1.96.15,1.44.15.78,0,1.36-.15,1.75-.44.39-.29.59-.7.59-1.23,0-.35-.07-.63-.21-.85-.14-.22-.37-.43-.7-.61s-.82-.4-1.49-.64c-.93-.33-1.59-.73-1.99-1.18s-.6-1.05-.6-1.78.29-1.38.87-1.84c.58-.46,1.34-.68,2.3-.68s1.91.18,2.74.55l-.36,1.01c-.82-.35-1.63-.52-2.41-.52-.62,0-1.1.13-1.44.4-.35.26-.52.63-.52,1.1,0,.35.06.63.19.85.13.22.34.42.65.61.3.19.77.39,1.39.61,1.05.37,1.77.77,2.16,1.2s.59.98.59,1.67Z"/><path class="cls-2" d="m817.34,182.58c-1.08,0-1.92-.33-2.52-1-.59-.67-.89-1.61-.89-2.83s.3-2.22.91-2.91,1.46-1.03,2.58-1.03c.36,0,.72.04,1.08.12.36.08.64.17.85.27l-.35.96c-.25-.1-.52-.18-.82-.25-.3-.07-.56-.1-.79-.1-1.52,0-2.28.97-2.28,2.91,0,.92.19,1.63.56,2.12s.92.74,1.65.74c.62,0,1.27-.13,1.92-.4v1c-.5.26-1.13.39-1.89.39Z"/><path class="cls-2" d="m825.62,182.44l-.23-1.07h-.05c-.37.47-.75.79-1.12.95-.37.17-.83.25-1.39.25-.74,0-1.33-.19-1.75-.57s-.63-.93-.63-1.63c0-1.51,1.21-2.31,3.63-2.38l1.27-.04v-.46c0-.59-.13-1.02-.38-1.3-.25-.28-.66-.42-1.21-.42-.62,0-1.33.19-2.12.57l-.35-.87c.37-.2.77-.36,1.21-.47s.88-.17,1.32-.17c.89,0,1.55.2,1.99.59s.65,1.03.65,1.91v5.11h-.84Zm-2.56-.8c.71,0,1.26-.19,1.67-.58s.6-.93.6-1.63v-.68l-1.13.05c-.9.03-1.55.17-1.95.42-.4.25-.6.63-.6,1.16,0,.41.12.72.37.94s.6.32,1.04.32Z"/><path class="cls-2" d="m833.92,182.44v-4.85c0-.61-.14-1.07-.42-1.37-.28-.3-.71-.45-1.31-.45-.78,0-1.36.21-1.72.64-.36.42-.55,1.12-.55,2.1v3.93h-1.13v-7.49h.92l.18,1.03h.05c.23-.37.56-.66.98-.86.42-.2.89-.3,1.4-.3.9,0,1.58.22,2.04.65.46.44.68,1.13.68,2.09v4.89h-1.13Z"/><path class="cls-2" d="m842.52,182.44v-4.85c0-.61-.14-1.07-.42-1.37-.28-.3-.71-.45-1.3-.45-.78,0-1.36.21-1.72.64-.37.42-.55,1.12-.55,2.1v3.93h-1.13v-7.49h.92l.19,1.03h.05c.23-.37.56-.66.98-.86.42-.2.89-.3,1.4-.3.9,0,1.58.22,2.04.65.46.44.68,1.13.68,2.09v4.89h-1.13Z"/><path class="cls-2" d="m849.15,182.58c-1.11,0-1.98-.34-2.62-1.01s-.96-1.61-.96-2.81.3-2.17.89-2.88,1.39-1.07,2.4-1.07c.94,0,1.68.31,2.23.93.55.62.82,1.43.82,2.44v.72h-5.16c.02.88.24,1.55.67,2s1.02.68,1.78.68c.81,0,1.6-.17,2.39-.51v1.01c-.4.17-.78.3-1.14.37-.36.08-.79.11-1.29.11Zm-.31-6.82c-.6,0-1.08.2-1.44.59s-.57.93-.63,1.63h3.92c0-.72-.16-1.26-.48-1.64-.32-.38-.77-.57-1.37-.57Z"/><path class="cls-2" d="m857.26,174.81c.33,0,.63.03.89.08l-.16,1.05c-.31-.07-.58-.1-.82-.1-.61,0-1.12.25-1.56.74s-.65,1.1-.65,1.84v4.02h-1.13v-7.49h.94l.13,1.39h.05c.28-.49.61-.86,1-1.13.39-.26.82-.4,1.29-.4Z"/><rect class="cls-3" x="706.79" y="336.86" width="213.96" height="160"/><rect class="cls-3" y="179.78" width="448" height="160"/><path class="cls-1" d="m61.32,307.4h2.82c1.33,0,2.29.2,2.88.59s.89,1.02.89,1.88c0,.59-.17,1.08-.5,1.47-.33.38-.81.63-1.45.75v.07c1.52.26,2.28,1.06,2.28,2.39,0,.89-.3,1.59-.91,2.09-.6.5-1.45.75-2.53.75h-3.49v-9.99Zm1.16,4.28h1.91c.82,0,1.41-.13,1.77-.39.36-.26.54-.69.54-1.3,0-.56-.2-.96-.6-1.21-.4-.25-1.04-.37-1.91-.37h-1.71v3.27Zm0,.98v3.74h2.08c.81,0,1.41-.16,1.82-.47.41-.31.61-.8.61-1.47,0-.62-.21-1.08-.62-1.37-.42-.29-1.05-.44-1.9-.44h-1.99Z"/><path class="cls-1" d="m73.64,309.76c.33,0,.63.03.9.08l-.16,1.05c-.31-.07-.58-.1-.82-.1-.61,0-1.12.25-1.56.74-.43.49-.65,1.11-.65,1.84v4.02h-1.13v-7.49h.94l.13,1.39h.05c.28-.49.61-.86,1-1.13s.82-.4,1.29-.4Z"/><path class="cls-1" d="m82.41,313.64c0,1.22-.31,2.17-.92,2.86-.62.69-1.46,1.03-2.55,1.03-.67,0-1.26-.16-1.78-.47s-.92-.77-1.2-1.35-.42-1.28-.42-2.06c0-1.22.3-2.17.92-2.85.61-.68,1.46-1.02,2.54-1.02s1.88.35,2.5,1.05c.62.7.93,1.64.93,2.83Zm-5.71,0c0,.96.19,1.69.57,2.19s.95.75,1.69.75,1.31-.25,1.69-.75c.38-.5.58-1.23.58-2.19s-.19-1.68-.58-2.17c-.39-.49-.95-.74-1.71-.74s-1.3.24-1.68.73-.57,1.21-.57,2.18Z"/><path class="cls-1" d="m90.51,317.39l-1.37-4.4c-.09-.27-.25-.88-.49-1.83h-.05c-.18.8-.34,1.41-.48,1.85l-1.42,4.38h-1.31l-2.04-7.49h1.19c.48,1.88.85,3.32,1.1,4.3.25.98.4,1.65.43,1.99h.05c.05-.26.13-.6.24-1.01.11-.41.21-.74.29-.98l1.37-4.3h1.23l1.34,4.3c.25.78.43,1.44.52,1.98h.05c.02-.16.07-.42.15-.76.08-.34.55-2.18,1.42-5.52h1.18l-2.07,7.49h-1.35Z"/><path class="cls-1" d="m100.12,315.35c0,.7-.26,1.24-.78,1.61s-1.25.57-2.19.57c-.99,0-1.77-.16-2.32-.47v-1.05c.36.18.75.33,1.16.43.41.1.81.16,1.19.16.59,0,1.05-.09,1.37-.28.32-.19.48-.48.48-.86,0-.29-.13-.54-.38-.75-.25-.21-.75-.45-1.48-.73-.7-.26-1.19-.49-1.49-.68-.29-.19-.51-.41-.66-.66-.14-.25-.22-.54-.22-.88,0-.61.25-1.09.75-1.45.5-.35,1.18-.53,2.04-.53.81,0,1.59.16,2.37.49l-.4.92c-.75-.31-1.43-.46-2.04-.46-.54,0-.94.08-1.22.25s-.41.4-.41.7c0,.2.05.37.15.51.1.14.27.28.5.4s.67.31,1.31.55c.89.32,1.49.65,1.8.98.31.33.47.74.47,1.24Z"/><path class="cls-1" d="m105.13,317.53c-1.11,0-1.98-.34-2.62-1.01-.64-.67-.96-1.61-.96-2.81s.3-2.17.89-2.88c.6-.71,1.39-1.07,2.4-1.07.94,0,1.68.31,2.23.93.55.62.82,1.43.82,2.44v.72h-5.16c.02.88.25,1.55.67,2,.42.46,1.01.68,1.78.68.81,0,1.6-.17,2.39-.51v1.01c-.4.17-.78.3-1.14.37-.36.08-.79.11-1.3.11Zm-.31-6.82c-.6,0-1.08.2-1.44.59-.36.39-.57.93-.63,1.63h3.92c0-.72-.16-1.26-.48-1.64-.32-.38-.78-.57-1.37-.57Z"/><path class="cls-1" d="m113.24,309.76c.33,0,.63.03.9.08l-.16,1.05c-.31-.07-.58-.1-.82-.1-.61,0-1.12.25-1.56.74-.43.49-.65,1.11-.65,1.84v4.02h-1.13v-7.49h.94l.13,1.39h.05c.28-.49.61-.86,1-1.13s.82-.4,1.29-.4Z"/><path class="cls-2" d="m156.48,373.22h-1.15l-2.02-6.69c-.1-.3-.2-.67-.32-1.12-.12-.45-.18-.72-.18-.81-.1.6-.26,1.26-.48,1.98l-1.96,6.65h-1.15l-2.66-9.99h1.23l1.58,6.17c.22.87.38,1.65.48,2.35.12-.83.31-1.65.55-2.45l1.79-6.08h1.23l1.88,6.13c.22.71.4,1.5.55,2.39.09-.65.25-1.44.49-2.37l1.57-6.16h1.23l-2.67,9.99Z"/><path class="cls-2" d="m160.46,363.7c0-.26.06-.45.19-.57.13-.12.29-.18.48-.18s.34.06.47.18c.13.12.2.31.2.57s-.07.45-.2.57c-.13.12-.29.19-.47.19s-.35-.06-.48-.19c-.13-.13-.19-.32-.19-.57Zm1.23,9.52h-1.13v-7.49h1.13v7.49Z"/><path class="cls-2" d="m169.22,373.22v-4.85c0-.61-.14-1.07-.42-1.37-.28-.3-.71-.45-1.31-.45-.78,0-1.36.21-1.72.64-.36.42-.55,1.12-.55,2.1v3.93h-1.13v-7.49h.92l.18,1.03h.05c.23-.37.56-.66.98-.86.42-.2.89-.3,1.4-.3.9,0,1.58.22,2.04.65.46.44.68,1.13.68,2.09v4.89h-1.13Z"/><path class="cls-2" d="m177.79,372.22h-.06c-.52.76-1.31,1.14-2.35,1.14-.98,0-1.74-.33-2.29-1-.54-.67-.82-1.62-.82-2.86s.27-2.19.82-2.88,1.31-1.03,2.28-1.03,1.8.37,2.34,1.11h.09l-.05-.54-.03-.53v-3.05h1.13v10.64h-.92l-.15-1Zm-2.27.19c.78,0,1.34-.21,1.69-.63.35-.42.52-1.1.52-2.04v-.24c0-1.06-.18-1.82-.53-2.27-.35-.45-.92-.68-1.69-.68-.67,0-1.17.26-1.53.78-.35.52-.53,1.25-.53,2.19s.18,1.68.53,2.17c.35.49.87.73,1.54.73Z"/><path class="cls-2" d="m187.73,369.47c0,1.22-.31,2.17-.92,2.86-.62.69-1.46,1.03-2.55,1.03-.67,0-1.26-.16-1.78-.47s-.92-.77-1.2-1.35c-.28-.59-.42-1.28-.42-2.06,0-1.22.31-2.17.92-2.85.61-.68,1.46-1.02,2.54-1.02s1.88.35,2.5,1.05c.62.7.93,1.64.93,2.83Zm-5.71,0c0,.96.19,1.69.57,2.19s.95.75,1.69.75,1.31-.25,1.69-.75c.38-.5.58-1.23.58-2.19s-.19-1.68-.58-2.17c-.39-.49-.95-.74-1.71-.74s-1.3.24-1.68.73c-.38.49-.57,1.21-.57,2.18Z"/><path class="cls-2" d="m195.84,373.22l-1.37-4.4c-.09-.27-.25-.88-.49-1.83h-.05c-.18.8-.34,1.41-.48,1.85l-1.42,4.38h-1.31l-2.04-7.49h1.19c.48,1.88.85,3.32,1.1,4.3s.4,1.65.43,1.99h.05c.05-.26.13-.6.24-1.01.11-.41.21-.74.29-.98l1.37-4.3h1.23l1.34,4.3c.26.78.43,1.44.52,1.98h.05c.02-.16.07-.42.15-.76.08-.34.55-2.18,1.42-5.52h1.18l-2.07,7.49h-1.35Z"/><path class="cls-2" d="m205.44,371.18c0,.7-.26,1.24-.78,1.61s-1.25.57-2.19.57c-.99,0-1.77-.16-2.32-.47v-1.05c.36.18.75.33,1.16.43.41.1.81.16,1.19.16.59,0,1.05-.09,1.37-.28.32-.19.48-.48.48-.86,0-.29-.13-.54-.38-.75-.25-.21-.75-.45-1.48-.73-.7-.26-1.19-.49-1.49-.68-.29-.19-.51-.41-.66-.66s-.22-.54-.22-.88c0-.61.25-1.09.75-1.45.5-.35,1.18-.53,2.04-.53.81,0,1.6.16,2.37.49l-.4.92c-.75-.31-1.43-.46-2.04-.46-.54,0-.94.08-1.22.25s-.41.4-.41.7c0,.2.05.37.15.51s.27.28.5.4c.23.13.67.31,1.31.55.89.32,1.49.65,1.8.98.31.33.47.74.47,1.24Z"/><path class="cls-2" d="m208.48,371.59l.1.16c-.12.46-.29.99-.51,1.59-.22.6-.46,1.17-.7,1.69h-.85c.12-.47.26-1.06.41-1.76.15-.7.25-1.26.31-1.67h1.24Z"/><path class="cls-2" d="m223.91,373.22v-4.87c0-.6-.13-1.04-.38-1.34-.25-.3-.65-.45-1.19-.45-.71,0-1.23.2-1.57.61-.34.41-.51,1.03-.51,1.87v4.18h-1.13v-4.87c0-.6-.13-1.04-.38-1.34-.25-.3-.65-.45-1.2-.45-.71,0-1.23.21-1.56.64-.33.43-.5,1.12-.5,2.09v3.93h-1.13v-7.49h.92l.18,1.03h.05c.21-.36.52-.65.91-.85s.83-.31,1.31-.31c1.17,0,1.94.42,2.3,1.27h.05c.22-.39.55-.7.97-.93s.91-.34,1.45-.34c.85,0,1.48.22,1.9.65.42.44.63,1.13.63,2.09v4.89h-1.13Z"/><path class="cls-2" d="m231.99,373.22l-.23-1.07h-.05c-.37.47-.75.79-1.12.95-.37.17-.83.25-1.39.25-.74,0-1.33-.19-1.75-.57-.42-.38-.63-.93-.63-1.63,0-1.51,1.21-2.31,3.63-2.38l1.27-.04v-.46c0-.59-.13-1.02-.38-1.3-.25-.28-.66-.42-1.21-.42-.62,0-1.33.19-2.12.57l-.35-.87c.37-.2.77-.36,1.21-.47.44-.11.88-.17,1.32-.17.89,0,1.56.2,1.99.59s.65,1.03.65,1.91v5.11h-.84Zm-2.56-.8c.71,0,1.26-.19,1.67-.58s.6-.93.6-1.63v-.68l-1.13.05c-.9.03-1.55.17-1.95.42-.4.25-.6.63-.6,1.16,0,.41.12.72.37.94.25.21.6.32,1.04.32Z"/><path class="cls-2" d="m238.16,373.36c-1.08,0-1.92-.33-2.52-1-.59-.67-.89-1.61-.89-2.83s.3-2.22.91-2.91c.6-.68,1.46-1.03,2.58-1.03.36,0,.72.04,1.08.12.36.08.64.17.85.27l-.35.96c-.25-.1-.52-.18-.82-.25-.3-.07-.56-.1-.79-.1-1.52,0-2.28.97-2.28,2.91,0,.92.19,1.63.56,2.12.37.49.92.74,1.65.74.62,0,1.26-.13,1.92-.4v1c-.5.26-1.13.39-1.89.39Z"/><path class="cls-2" d="m250.68,368.21c0,1.6-.4,2.86-1.21,3.77-.81.92-1.93,1.37-3.37,1.37s-2.61-.45-3.41-1.35c-.8-.9-1.2-2.17-1.2-3.81s.4-2.89,1.2-3.78c.8-.89,1.94-1.34,3.42-1.34s2.56.46,3.36,1.37,1.21,2.17,1.21,3.77Zm-7.96,0c0,1.35.29,2.38.87,3.08.58.7,1.41,1.05,2.51,1.05s1.94-.35,2.51-1.05c.57-.7.85-1.72.85-3.08s-.28-2.36-.84-3.06c-.56-.69-1.4-1.04-2.5-1.04s-1.95.35-2.53,1.05c-.58.7-.87,1.72-.87,3.05Z"/><path class="cls-2" d="m258.55,370.56c0,.88-.32,1.57-.96,2.06-.64.49-1.5.74-2.6.74-1.18,0-2.1-.15-2.73-.46v-1.12c.41.17.86.31,1.34.41.48.1.96.15,1.44.15.78,0,1.36-.15,1.75-.44.39-.29.59-.7.59-1.23,0-.35-.07-.63-.21-.85-.14-.22-.37-.43-.7-.61-.33-.19-.82-.4-1.49-.64-.93-.33-1.59-.73-1.99-1.18-.4-.46-.6-1.05-.6-1.78,0-.77.29-1.38.87-1.84.58-.46,1.34-.68,2.3-.68s1.91.18,2.74.55l-.36,1.01c-.82-.35-1.63-.52-2.41-.52-.62,0-1.1.13-1.44.4-.35.26-.52.63-.52,1.1,0,.35.06.63.19.85.13.22.34.42.65.61.3.19.77.39,1.39.61,1.05.37,1.77.77,2.16,1.2.39.43.59.98.59,1.67Z"/><path class="cls-2" d="m261.61,371.59l.1.16c-.12.46-.29.99-.51,1.59-.22.6-.46,1.17-.7,1.69h-.85c.12-.47.26-1.06.41-1.76.15-.7.25-1.26.31-1.67h1.24Z"/><path class="cls-2" d="m267.66,373.22v-9.99h1.16v8.94h4.41v1.05h-5.57Z"/><path class="cls-2" d="m274.66,363.7c0-.26.06-.45.19-.57.13-.12.29-.18.48-.18s.34.06.47.18c.13.12.2.31.2.57s-.07.45-.2.57c-.13.12-.29.19-.47.19s-.35-.06-.48-.19c-.13-.13-.19-.32-.19-.57Zm1.23,9.52h-1.13v-7.49h1.13v7.49Z"/><path class="cls-2" d="m283.42,373.22v-4.85c0-.61-.14-1.07-.42-1.37-.28-.3-.71-.45-1.31-.45-.78,0-1.36.21-1.72.64-.36.42-.55,1.12-.55,2.1v3.93h-1.13v-7.49h.92l.18,1.03h.05c.23-.37.56-.66.98-.86.42-.2.89-.3,1.4-.3.9,0,1.58.22,2.04.65.46.44.68,1.13.68,2.09v4.89h-1.13Z"/><path class="cls-2" d="m287.95,365.73v4.86c0,.61.14,1.07.42,1.37.28.3.71.45,1.31.45.78,0,1.36-.21,1.72-.64s.54-1.13.54-2.1v-3.94h1.13v7.49h-.94l-.16-1h-.06c-.23.37-.55.65-.97.85-.41.2-.88.29-1.41.29-.91,0-1.59-.22-2.05-.65-.45-.43-.68-1.13-.68-2.08v-4.9h1.15Z"/><path class="cls-2" d="m297.28,369.39l-2.6-3.66h1.29l1.98,2.87,1.97-2.87h1.28l-2.6,3.66,2.74,3.83h-1.29l-2.1-3.04-2.12,3.04h-1.29l2.74-3.83Z"/><path class="cls-2" d="m199.93,260.55h-1.27v-8.14c0-.68.02-1.32.06-1.92-.11.11-.23.22-.37.34-.14.12-.76.63-1.86,1.52l-.69-.89,3.02-2.34h1.09v11.42Z"/><path class="cls-2" d="m211.78,260.55h-7.51v-1.12l3.01-3.02c.92-.93,1.52-1.59,1.81-1.98.29-.4.51-.78.66-1.16.15-.38.22-.78.22-1.21,0-.61-.19-1.09-.55-1.45-.37-.36-.88-.54-1.54-.54-.47,0-.92.08-1.35.23-.42.16-.9.44-1.42.85l-.69-.88c1.05-.88,2.2-1.31,3.44-1.31,1.07,0,1.91.27,2.52.82s.91,1.29.91,2.21c0,.72-.2,1.44-.61,2.15s-1.17,1.6-2.28,2.69l-2.5,2.45v.06h5.88v1.2Z"/><path class="cls-2" d="m214.86,260.55l4.73-10.23h-6.23v-1.2h7.6v1.04l-4.67,10.38h-1.44Z"/><path class="cls-2" d="m222.97,259.72c0-.35.08-.61.24-.79.16-.18.39-.27.68-.27s.54.09.71.27c.17.18.25.44.25.79s-.09.6-.26.78-.41.27-.7.27c-.27,0-.49-.08-.66-.25-.17-.16-.26-.43-.26-.81Z"/><path class="cls-2" d="m234.39,254.82c0,1.97-.31,3.45-.93,4.42-.62.97-1.57,1.46-2.86,1.46s-2.16-.5-2.8-1.5-.96-2.46-.96-4.39.31-3.47.93-4.43c.62-.96,1.56-1.45,2.84-1.45s2.18.5,2.82,1.51c.64,1,.96,2.46.96,4.37Zm-6.24,0c0,1.66.2,2.87.59,3.63s1.01,1.14,1.87,1.14,1.49-.38,1.88-1.15c.39-.77.58-1.97.58-3.61s-.19-2.84-.58-3.61c-.39-.76-1.01-1.14-1.88-1.14s-1.48.38-1.87,1.13-.59,1.96-.59,3.62Z"/><path class="cls-2" d="m236.38,259.72c0-.35.08-.61.24-.79.16-.18.39-.27.68-.27s.54.09.71.27c.17.18.25.44.25.79s-.09.6-.26.78-.41.27-.7.27c-.27,0-.49-.08-.66-.25-.17-.16-.26-.43-.26-.81Z"/><path class="cls-2" d="m247.8,254.82c0,1.97-.31,3.45-.93,4.42-.62.97-1.57,1.46-2.86,1.46s-2.16-.5-2.8-1.5-.96-2.46-.96-4.39.31-3.47.93-4.43c.62-.96,1.56-1.45,2.84-1.45s2.18.5,2.82,1.51c.64,1,.96,2.46.96,4.37Zm-6.24,0c0,1.66.2,2.87.59,3.63s1.01,1.14,1.87,1.14,1.49-.38,1.88-1.15c.39-.77.58-1.97.58-3.61s-.19-2.84-.58-3.61c-.39-.76-1.01-1.14-1.88-1.14s-1.48.38-1.87,1.13-.59,1.96-.59,3.62Z"/><path class="cls-2" d="m249.79,259.72c0-.35.08-.61.24-.79.16-.18.39-.27.68-.27s.54.09.71.27c.17.18.25.44.25.79s-.09.6-.26.78-.41.27-.7.27c-.27,0-.49-.08-.66-.25-.17-.16-.26-.43-.26-.81Z"/><path class="cls-2" d="m258.44,260.55h-1.27v-8.14c0-.68.02-1.32.06-1.92-.11.11-.23.22-.37.34-.14.12-.76.63-1.86,1.52l-.69-.89,3.02-2.34h1.09v11.42Z"/><path class="cls-1" d="m308.88,312.3c0,1.65-.45,2.91-1.34,3.78-.89.87-2.18,1.31-3.87,1.31h-2.77v-9.99h3.06c1.55,0,2.76.43,3.62,1.29s1.29,2.06,1.29,3.61Zm-1.23.04c0-1.3-.33-2.29-.98-2.95-.65-.66-1.63-.99-2.92-.99h-1.69v7.98h1.42c1.38,0,2.43-.34,3.12-1.02.7-.68,1.05-1.69,1.05-3.02Z"/><path class="cls-1" d="m309.75,309.9h1.22l1.64,4.27c.36.98.58,1.68.67,2.11h.05c.06-.23.18-.63.37-1.19.19-.56.81-2.29,1.86-5.19h1.22l-3.22,8.53c-.32.84-.69,1.44-1.12,1.79-.43.35-.95.53-1.57.53-.35,0-.69-.04-1.03-.12v-.91c.25.05.53.08.84.08.78,0,1.34-.44,1.67-1.31l.42-1.07-3.02-7.53Z"/><path class="cls-1" d="m323.12,317.39v-4.85c0-.61-.14-1.07-.42-1.37s-.71-.45-1.31-.45c-.78,0-1.36.21-1.72.64s-.55,1.12-.55,2.1v3.93h-1.13v-7.49h.92l.18,1.03h.05c.23-.37.56-.66.98-.86.42-.2.89-.3,1.4-.3.9,0,1.58.22,2.04.65.46.44.68,1.13.68,2.09v4.89h-1.13Z"/><path class="cls-1" d="m331.2,317.39l-.23-1.07h-.05c-.37.47-.75.79-1.12.95-.37.17-.83.25-1.39.25-.74,0-1.33-.19-1.75-.57-.42-.38-.63-.93-.63-1.63,0-1.51,1.21-2.31,3.63-2.38l1.27-.04v-.46c0-.59-.13-1.02-.38-1.3-.25-.28-.66-.42-1.21-.42-.62,0-1.33.19-2.12.57l-.35-.87c.37-.2.77-.36,1.21-.47.44-.11.88-.17,1.32-.17.89,0,1.55.2,1.99.59.43.4.65,1.03.65,1.91v5.11h-.84Zm-2.56-.8c.71,0,1.26-.19,1.67-.58.4-.39.6-.93.6-1.63v-.68l-1.13.05c-.9.03-1.55.17-1.95.42-.4.25-.6.63-.6,1.16,0,.41.12.72.37.94.25.21.6.32,1.04.32Z"/><path class="cls-1" d="m343.92,317.39v-4.87c0-.6-.13-1.04-.38-1.34-.26-.3-.65-.45-1.19-.45-.71,0-1.23.2-1.57.61s-.51,1.03-.51,1.87v4.18h-1.13v-4.87c0-.6-.13-1.04-.38-1.34-.25-.3-.65-.45-1.2-.45-.71,0-1.23.21-1.56.64-.33.43-.5,1.12-.5,2.09v3.93h-1.13v-7.49h.92l.18,1.03h.05c.21-.36.52-.65.91-.85.39-.21.83-.31,1.31-.31,1.17,0,1.94.42,2.3,1.27h.05c.22-.39.55-.7.97-.93s.91-.34,1.45-.34c.85,0,1.48.22,1.9.65.42.44.63,1.13.63,2.09v4.89h-1.13Z"/><path class="cls-1" d="m347.3,307.87c0-.26.06-.45.19-.57.13-.12.29-.18.48-.18s.34.06.47.18.2.31.2.57-.07.45-.2.57c-.13.12-.29.19-.47.19-.19,0-.35-.06-.48-.19-.13-.13-.19-.32-.19-.57Zm1.23,9.52h-1.13v-7.49h1.13v7.49Z"/><path class="cls-1" d="m353.93,317.53c-1.08,0-1.92-.33-2.52-1-.59-.67-.89-1.61-.89-2.83s.3-2.22.91-2.91c.6-.68,1.46-1.03,2.58-1.03.36,0,.72.04,1.08.12s.64.17.85.27l-.35.96c-.25-.1-.52-.18-.82-.25-.3-.07-.56-.1-.79-.1-1.52,0-2.28.97-2.28,2.91,0,.92.19,1.63.56,2.12.37.49.92.74,1.65.74.62,0,1.26-.13,1.92-.4v1c-.5.26-1.13.39-1.89.39Z"/><path class="cls-1" d="m370.13,317.39h-1.15l-2.02-6.69c-.1-.3-.2-.67-.32-1.12s-.18-.72-.18-.81c-.1.6-.26,1.26-.48,1.98l-1.96,6.65h-1.15l-2.66-9.99h1.23l1.58,6.17c.22.87.38,1.65.48,2.35.12-.83.31-1.65.55-2.45l1.79-6.08h1.23l1.88,6.13c.22.71.4,1.5.55,2.39.09-.65.25-1.44.49-2.37l1.57-6.16h1.23l-2.67,9.99Z"/><path class="cls-1" d="m377.37,317.53c-1.11,0-1.98-.34-2.62-1.01-.64-.67-.96-1.61-.96-2.81s.3-2.17.89-2.88c.59-.71,1.39-1.07,2.4-1.07.94,0,1.68.31,2.23.93.55.62.82,1.43.82,2.44v.72h-5.16c.02.88.25,1.55.67,2,.42.46,1.02.68,1.78.68.81,0,1.6-.17,2.39-.51v1.01c-.4.17-.78.3-1.14.37-.36.08-.79.11-1.29.11Zm-.31-6.82c-.6,0-1.08.2-1.44.59-.36.39-.57.93-.63,1.63h3.92c0-.72-.16-1.26-.48-1.64-.32-.38-.77-.57-1.37-.57Z"/><path class="cls-1" d="m385.54,309.78c.98,0,1.75.34,2.29,1.01.54.67.82,1.62.82,2.85s-.27,2.19-.82,2.87c-.55.68-1.31,1.02-2.29,1.02-.49,0-.93-.09-1.34-.27-.4-.18-.74-.46-1.02-.83h-.08l-.24.96h-.81v-10.64h1.13v2.58c0,.58-.02,1.1-.05,1.56h.05c.53-.75,1.31-1.12,2.35-1.12Zm-.16.95c-.78,0-1.33.22-1.67.67-.34.44-.51,1.19-.51,2.25s.18,1.81.53,2.26c.35.45.91.68,1.69.68.7,0,1.22-.25,1.56-.76.34-.51.51-1.24.51-2.19s-.17-1.7-.51-2.18-.87-.72-1.59-.72Z"/><path class="cls-1" d="m397.52,317.39h-1.16v-8.96h-3.17v-1.03h7.49v1.03h-3.17v8.96Z"/><path class="cls-1" d="m410.91,317.39h-1.15l-2.02-6.69c-.1-.3-.2-.67-.32-1.12s-.18-.72-.18-.81c-.1.6-.26,1.26-.48,1.98l-1.96,6.65h-1.15l-2.66-9.99h1.23l1.58,6.17c.22.87.38,1.65.48,2.35.12-.83.3-1.65.55-2.45l1.79-6.08h1.23l1.88,6.13c.22.71.4,1.5.55,2.39.09-.65.25-1.44.49-2.37l1.57-6.16h1.23l-2.67,9.99Z"/><path class="cls-1" d="m421.43,317.39l-1.24-3.18h-4.01l-1.23,3.18h-1.18l3.95-10.04h.98l3.93,10.04h-1.2Zm-1.61-4.22l-1.16-3.1c-.15-.39-.31-.87-.46-1.44-.1.44-.24.92-.43,1.44l-1.18,3.1h3.23Z"/><path class="cls-1" d="m424.01,317.39v-9.99h1.16v9.99h-1.16Z"/><path class="cls-1" d="m435.72,317.39h-1.33l-5.46-8.39h-.05c.07.98.11,1.89.11,2.71v5.68h-1.07v-9.99h1.31l5.45,8.35h.05c0-.12-.03-.52-.06-1.19-.03-.67-.04-1.15-.03-1.43v-5.74h1.09v9.99Z"/><path class="cls-1" d="m353.98,331.53c0,.88-.32,1.57-.96,2.06s-1.5.74-2.6.74c-1.18,0-2.1-.15-2.73-.46v-1.12c.41.17.86.31,1.34.41s.96.15,1.44.15c.77,0,1.36-.15,1.75-.44.39-.29.59-.7.59-1.23,0-.35-.07-.63-.21-.85-.14-.22-.37-.43-.7-.61-.33-.19-.82-.4-1.49-.64-.93-.33-1.59-.73-1.99-1.18-.4-.46-.6-1.05-.6-1.78,0-.77.29-1.38.87-1.84s1.34-.68,2.3-.68,1.91.18,2.74.55l-.36,1.01c-.83-.35-1.63-.52-2.41-.52-.62,0-1.1.13-1.44.4s-.52.63-.52,1.1c0,.35.06.63.19.85.13.22.34.42.65.61.3.19.77.39,1.39.61,1.05.37,1.77.77,2.16,1.2.39.43.59.98.59,1.67Z"/><path class="cls-1" d="m359.02,334.33c-1.11,0-1.98-.34-2.62-1.01-.64-.67-.96-1.61-.96-2.81s.3-2.17.89-2.88c.59-.71,1.39-1.07,2.4-1.07.94,0,1.68.31,2.23.93.55.62.82,1.43.82,2.44v.72h-5.16c.02.88.25,1.55.67,2,.42.46,1.02.68,1.78.68.81,0,1.6-.17,2.39-.51v1.01c-.4.17-.78.3-1.14.37-.36.08-.79.11-1.29.11Zm-.31-6.82c-.6,0-1.08.2-1.44.59-.36.39-.57.93-.63,1.63h3.92c0-.72-.16-1.26-.48-1.64-.32-.38-.77-.57-1.37-.57Z"/><path class="cls-1" d="m367.13,326.56c.33,0,.63.03.9.08l-.16,1.05c-.31-.07-.58-.1-.82-.1-.61,0-1.12.25-1.55.74-.43.49-.65,1.11-.65,1.84v4.02h-1.13v-7.49h.94l.13,1.39h.05c.28-.49.61-.86,1-1.13s.82-.4,1.29-.4Z"/><path class="cls-1" d="m371.06,334.19l-2.84-7.49h1.22l1.61,4.44c.37,1.04.58,1.71.64,2.02h.05c.05-.24.21-.74.47-1.5.27-.76.87-2.42,1.79-4.97h1.22l-2.84,7.49h-1.33Z"/><path class="cls-1" d="m376.34,324.67c0-.26.06-.45.19-.57.13-.12.29-.18.48-.18s.34.06.47.18.2.31.2.57-.07.45-.2.57c-.13.12-.29.19-.47.19-.19,0-.35-.06-.48-.19-.13-.13-.19-.32-.19-.57Zm1.23,9.52h-1.13v-7.49h1.13v7.49Z"/><path class="cls-1" d="m382.97,334.33c-1.08,0-1.92-.33-2.52-1-.59-.67-.89-1.61-.89-2.83s.3-2.22.91-2.91c.6-.68,1.46-1.03,2.58-1.03.36,0,.72.04,1.08.12s.64.17.85.27l-.35.96c-.25-.1-.52-.18-.82-.25-.3-.07-.56-.1-.79-.1-1.52,0-2.28.97-2.28,2.91,0,.92.19,1.63.56,2.12.37.49.92.74,1.65.74.62,0,1.26-.13,1.92-.4v1c-.5.26-1.13.39-1.89.39Z"/><path class="cls-1" d="m389.81,334.33c-1.11,0-1.98-.34-2.62-1.01-.64-.67-.96-1.61-.96-2.81s.3-2.17.89-2.88c.59-.71,1.39-1.07,2.4-1.07.94,0,1.68.31,2.23.93.55.62.82,1.43.82,2.44v.72h-5.16c.02.88.25,1.55.67,2,.42.46,1.02.68,1.78.68.81,0,1.6-.17,2.39-.51v1.01c-.4.17-.78.3-1.14.37-.36.08-.79.11-1.29.11Zm-.31-6.82c-.6,0-1.08.2-1.44.59-.36.39-.57.93-.63,1.63h3.92c0-.72-.16-1.26-.48-1.64-.32-.38-.77-.57-1.37-.57Z"/><path class="cls-2" d="m506.75,250.18h-1.15l-2.02-6.69c-.1-.3-.2-.67-.32-1.12s-.18-.72-.18-.81c-.1.6-.26,1.26-.48,1.98l-1.96,6.65h-1.15l-2.66-9.99h1.23l1.58,6.17c.22.87.38,1.65.48,2.35.12-.83.3-1.65.55-2.45l1.79-6.08h1.23l1.88,6.13c.22.71.4,1.5.55,2.39.09-.65.25-1.44.49-2.37l1.57-6.16h1.23l-2.67,9.99Z"/><path class="cls-2" d="m510.72,240.66c0-.26.06-.45.19-.57.13-.12.29-.18.48-.18s.34.06.47.18.2.31.2.57-.07.45-.2.57c-.13.13-.29.19-.47.19-.19,0-.35-.06-.48-.19-.13-.12-.19-.31-.19-.57Zm1.23,9.52h-1.13v-7.49h1.13v7.49Z"/><path class="cls-2" d="m517.77,242.55c.33,0,.63.03.9.08l-.16,1.05c-.31-.07-.58-.1-.82-.1-.61,0-1.12.25-1.55.74-.43.49-.65,1.11-.65,1.84v4.02h-1.13v-7.49h.94l.13,1.39h.05c.28-.49.61-.86,1-1.13s.82-.4,1.29-.4Z"/><path class="cls-2" d="m523.24,250.32c-1.11,0-1.98-.34-2.62-1.01-.64-.67-.96-1.61-.96-2.81s.3-2.17.89-2.88c.6-.71,1.39-1.07,2.4-1.07.94,0,1.68.31,2.23.93.55.62.82,1.43.82,2.44v.72h-5.16c.02.88.25,1.55.67,2,.42.46,1.01.68,1.78.68.81,0,1.6-.17,2.39-.51v1.01c-.4.17-.78.3-1.14.37-.36.07-.79.11-1.3.11Zm-.31-6.82c-.6,0-1.08.2-1.44.59-.36.39-.57.93-.63,1.63h3.92c0-.71-.16-1.26-.48-1.64-.32-.38-.78-.57-1.37-.57Z"/><path class="cls-2" d="m533.02,249.18h-.06c-.52.76-1.31,1.14-2.35,1.14-.98,0-1.74-.33-2.29-1-.54-.67-.82-1.62-.82-2.86s.27-2.19.82-2.88,1.31-1.03,2.28-1.03,1.79.37,2.34,1.11h.09l-.05-.54-.03-.53v-3.05h1.13v10.64h-.92l-.15-1Zm-2.27.19c.77,0,1.34-.21,1.68-.63.35-.42.52-1.1.52-2.04v-.24c0-1.06-.18-1.82-.53-2.27-.35-.45-.92-.68-1.69-.68-.67,0-1.17.26-1.53.78-.35.52-.53,1.25-.53,2.19s.18,1.68.53,2.17.87.73,1.54.73Z"/><path class="cls-2" d="m544.75,250.18l-.23-1.07h-.05c-.37.47-.75.79-1.12.95-.37.17-.83.25-1.39.25-.74,0-1.33-.19-1.75-.57-.42-.38-.63-.93-.63-1.63,0-1.51,1.21-2.31,3.63-2.38l1.27-.04v-.46c0-.59-.13-1.02-.38-1.3-.25-.28-.66-.42-1.21-.42-.62,0-1.33.19-2.12.57l-.35-.87c.37-.2.77-.36,1.21-.47.44-.11.88-.17,1.32-.17.89,0,1.55.2,1.99.59.43.4.65,1.03.65,1.91v5.11h-.84Zm-2.56-.8c.71,0,1.26-.19,1.67-.58.4-.39.6-.93.6-1.63v-.68l-1.13.05c-.9.03-1.55.17-1.95.42-.4.25-.6.63-.6,1.16,0,.41.12.72.37.94.25.21.6.32,1.04.32Z"/><path class="cls-2" d="m553.05,250.18v-4.85c0-.61-.14-1.07-.42-1.37s-.71-.45-1.31-.45c-.78,0-1.36.21-1.72.64s-.55,1.12-.55,2.1v3.93h-1.13v-7.49h.92l.18,1.03h.05c.23-.37.56-.66.98-.86.42-.2.89-.3,1.4-.3.9,0,1.58.22,2.04.65.46.43.68,1.13.68,2.09v4.89h-1.13Z"/><path class="cls-2" d="m561.62,249.18h-.06c-.52.76-1.31,1.14-2.35,1.14-.98,0-1.74-.33-2.29-1-.54-.67-.82-1.62-.82-2.86s.27-2.19.82-2.88,1.31-1.03,2.28-1.03,1.8.37,2.34,1.11h.09l-.05-.54-.03-.53v-3.05h1.13v10.64h-.92l-.15-1Zm-2.27.19c.78,0,1.34-.21,1.69-.63.35-.42.52-1.1.52-2.04v-.24c0-1.06-.18-1.82-.53-2.27-.35-.45-.92-.68-1.69-.68-.67,0-1.17.26-1.53.78-.35.52-.53,1.25-.53,2.19s.17,1.68.53,2.17.87.73,1.54.73Z"/><path class="cls-2" d="m577.63,250.18h-1.15l-2.02-6.69c-.1-.3-.2-.67-.32-1.12s-.18-.72-.18-.81c-.1.6-.26,1.26-.48,1.98l-1.96,6.65h-1.15l-2.66-9.99h1.23l1.58,6.17c.22.87.38,1.65.48,2.35.12-.83.31-1.65.55-2.45l1.79-6.08h1.23l1.88,6.13c.22.71.4,1.5.55,2.39.09-.65.25-1.44.49-2.37l1.57-6.16h1.23l-2.67,9.99Z"/><path class="cls-2" d="m581.6,240.66c0-.26.06-.45.19-.57.13-.12.29-.18.48-.18s.34.06.47.18.2.31.2.57-.07.45-.2.57c-.13.13-.29.19-.47.19s-.35-.06-.48-.19c-.13-.12-.19-.31-.19-.57Zm1.23,9.52h-1.13v-7.49h1.13v7.49Z"/><path class="cls-2" d="m588.66,242.55c.33,0,.63.03.9.08l-.16,1.05c-.31-.07-.58-.1-.82-.1-.61,0-1.12.25-1.56.74-.43.49-.65,1.11-.65,1.84v4.02h-1.13v-7.49h.94l.13,1.39h.05c.28-.49.61-.86,1-1.13s.82-.4,1.29-.4Z"/><path class="cls-2" d="m594.12,250.32c-1.11,0-1.98-.34-2.62-1.01-.64-.67-.96-1.61-.96-2.81s.3-2.17.89-2.88c.59-.71,1.39-1.07,2.4-1.07.94,0,1.68.31,2.23.93.55.62.82,1.43.82,2.44v.72h-5.16c.02.88.25,1.55.67,2,.42.46,1.02.68,1.78.68.81,0,1.6-.17,2.39-.51v1.01c-.4.17-.78.3-1.14.37-.36.07-.79.11-1.29.11Zm-.31-6.82c-.6,0-1.08.2-1.44.59-.36.39-.57.93-.63,1.63h3.92c0-.71-.16-1.26-.48-1.64-.32-.38-.77-.57-1.37-.57Z"/><path class="cls-2" d="m599.94,250.18h-1.13v-10.64h1.13v10.64Z"/><path class="cls-2" d="m605.51,250.32c-1.11,0-1.98-.34-2.62-1.01-.64-.67-.96-1.61-.96-2.81s.3-2.17.89-2.88c.6-.71,1.39-1.07,2.4-1.07.94,0,1.68.31,2.23.93.55.62.82,1.43.82,2.44v.72h-5.16c.02.88.25,1.55.67,2,.42.46,1.01.68,1.78.68.81,0,1.6-.17,2.39-.51v1.01c-.4.17-.78.3-1.14.37-.36.07-.79.11-1.3.11Zm-.31-6.82c-.6,0-1.08.2-1.44.59-.36.39-.57.93-.63,1.63h3.92c0-.71-.16-1.26-.48-1.64-.32-.38-.78-.57-1.37-.57Z"/><path class="cls-2" d="m615.04,248.14c0,.7-.26,1.23-.78,1.61s-1.25.57-2.19.57c-.99,0-1.77-.16-2.32-.47v-1.05c.36.18.75.33,1.16.43.41.1.81.16,1.19.16.59,0,1.05-.09,1.37-.28.32-.19.48-.48.48-.87,0-.29-.13-.54-.38-.75-.25-.21-.75-.45-1.48-.74-.7-.26-1.19-.49-1.49-.68-.29-.19-.51-.41-.66-.66-.14-.25-.22-.54-.22-.88,0-.61.25-1.09.75-1.45.5-.35,1.18-.53,2.04-.53.81,0,1.59.16,2.37.49l-.4.92c-.75-.31-1.43-.46-2.04-.46-.54,0-.94.08-1.22.25s-.41.4-.41.7c0,.2.05.37.15.51.1.14.27.28.5.4s.67.31,1.31.55c.89.32,1.49.65,1.8.98.31.33.47.74.47,1.24Z"/><path class="cls-2" d="m621.71,248.14c0,.7-.26,1.23-.78,1.61s-1.25.57-2.19.57c-.99,0-1.77-.16-2.32-.47v-1.05c.36.18.75.33,1.16.43.41.1.81.16,1.19.16.59,0,1.05-.09,1.37-.28.32-.19.48-.48.48-.87,0-.29-.13-.54-.38-.75-.25-.21-.75-.45-1.48-.74-.7-.26-1.19-.49-1.49-.68-.29-.19-.51-.41-.66-.66-.14-.25-.21-.54-.21-.88,0-.61.25-1.09.75-1.45.5-.35,1.18-.53,2.04-.53.81,0,1.6.16,2.37.49l-.4.92c-.75-.31-1.43-.46-2.04-.46-.54,0-.94.08-1.22.25s-.41.4-.41.7c0,.2.05.37.15.51.1.14.27.28.5.4s.67.31,1.31.55c.89.32,1.49.65,1.8.98.31.33.47.74.47,1.24Z"/><g id="Computers-Devices-Electronics_Scan_Print_printer-2"><g id="Group_209-2"><g id="printer-2"><path id="Shape_1150-2" class="cls-4" d="m792.38,398.6h10.29c1.27,0,2.4.77,2.87,1.95l5.42,13.53h-65.02l5.42-13.53c.47-1.18,1.61-1.95,2.87-1.95h10.29"/><path id="Shape_1148-2" class="cls-4" d="m792.38,404.8h-27.87v-21.67h21.67l6.19,6.19v15.48h0Z"/><path id="Shape_1147-2" class="cls-4" d="m761.42,404.8h34.06"/><path id="Shape_1149-2" class="cls-4" d="m760.64,438.85h-8.88c-1.56,0-2.88-1.16-3.07-2.71l-2.76-22.06h65.02l-2.76,22.06c-.19,1.55-1.51,2.71-3.07,2.71h-10.42"/><path id="Shape_1151-2" class="cls-8" d="m762.97,429.56h29.41l6.19,24.77h-41.8l6.19-24.77h0Z"/><path id="Shape_1152-2" class="cls-4" d="m802.56,419.27c.92,0,1.67.75,1.67,1.67s-.75,1.67-1.67,1.67-1.67-.75-1.67-1.67.75-1.67,1.67-1.67"/><path id="Shape_1153-2" class="cls-4" d="m802.56,427c.92,0,1.67.75,1.67,1.67s-.75,1.67-1.67,1.67-1.67-.75-1.67-1.67.75-1.67,1.67-1.67"/><path id="Shape_1154-2" class="cls-4" d="m776.9,435.76h7.74"/><path id="Shape_1155-2" class="cls-4" d="m767.61,441.95h18.58"/><path id="Shape_1156-2" class="cls-4" d="m764.51,448.14h23.22"/></g></g></g><path class="cls-2" d="m715.9,522.3h-1.16v-8.96h-3.17v-1.03h7.49v1.03h-3.17v8.96Z"/><path class="cls-2" d="m729.29,522.3h-1.15l-2.02-6.69c-.1-.3-.2-.67-.32-1.12s-.18-.72-.18-.81c-.1.6-.26,1.26-.48,1.98l-1.96,6.65h-1.15l-2.66-9.99h1.23l1.58,6.17c.22.87.38,1.65.48,2.35.12-.83.31-1.65.55-2.45l1.79-6.08h1.23l1.88,6.13c.22.71.4,1.5.55,2.39.09-.65.25-1.44.49-2.37l1.57-6.16h1.23l-2.67,9.99Z"/><path class="cls-2" d="m739.81,522.3l-1.24-3.18h-4.01l-1.23,3.18h-1.18l3.95-10.04h.98l3.93,10.04h-1.2Zm-1.61-4.22l-1.16-3.1c-.15-.39-.3-.87-.46-1.44-.1.44-.24.92-.43,1.44l-1.18,3.1h3.23Z"/><path class="cls-2" d="m742.38,522.3v-9.99h1.16v9.99h-1.16Z"/><path class="cls-2" d="m754.09,522.3h-1.33l-5.46-8.39h-.05c.07.98.11,1.89.11,2.71v5.68h-1.07v-9.99h1.31l5.45,8.35h.05c0-.12-.03-.52-.06-1.19-.03-.67-.04-1.15-.03-1.43v-5.74h1.09v9.99Z"/><path class="cls-2" d="m760.47,512.31l-3.73,9.99h-1.13l3.73-9.99h1.13Z"/><path class="cls-2" d="m770.71,522.3h-1.15l-2.02-6.69c-.1-.3-.2-.67-.32-1.12s-.18-.72-.18-.81c-.1.6-.26,1.26-.48,1.98l-1.96,6.65h-1.15l-2.66-9.99h1.23l1.58,6.17c.22.87.38,1.65.48,2.35.12-.83.3-1.65.55-2.45l1.79-6.08h1.23l1.88,6.13c.22.71.4,1.5.55,2.39.09-.65.25-1.44.49-2.37l1.57-6.16h1.23l-2.67,9.99Z"/><path class="cls-2" d="m774.94,522.3v-9.99h1.16v9.99h-1.16Z"/><path class="cls-2" d="m785.13,522.3l-1.24-3.18h-4.01l-1.23,3.18h-1.18l3.95-10.04h.98l3.93,10.04h-1.2Zm-1.61-4.22l-1.16-3.1c-.15-.39-.3-.87-.46-1.44-.1.44-.24.92-.43,1.44l-1.18,3.1h3.23Z"/><path class="cls-2" d="m791.33,512.31l-3.73,9.99h-1.13l3.73-9.99h1.13Z"/><path class="cls-2" d="m792.85,522.3v-9.99h1.16v9.99h-1.16Z"/><path class="cls-2" d="m801.03,513.2c-1.1,0-1.97.37-2.6,1.1-.64.73-.95,1.73-.95,3s.31,2.32.92,3.03c.61.71,1.49,1.07,2.62,1.07.7,0,1.49-.13,2.39-.38v1.02c-.69.26-1.55.39-2.56.39-1.47,0-2.61-.45-3.41-1.34-.8-.89-1.2-2.16-1.2-3.81,0-1.03.19-1.93.58-2.71.39-.77.94-1.37,1.67-1.79.73-.42,1.58-.63,2.57-.63,1.05,0,1.96.19,2.75.57l-.49,1c-.76-.36-1.51-.53-2.27-.53Z"/><path class="cls-2" d="m811.87,522.3l-1.24-3.18h-4.01l-1.23,3.18h-1.18l3.95-10.04h.98l3.93,10.04h-1.2Zm-1.61-4.22l-1.16-3.1c-.15-.39-.31-.87-.46-1.44-.1.44-.24.92-.43,1.44l-1.18,3.1h3.23Z"/><path class="cls-2" d="m818.07,512.31l-3.73,9.99h-1.13l3.73-9.99h1.13Z"/><path class="cls-2" d="m825.22,519.64c0,.88-.32,1.57-.96,2.06s-1.5.74-2.6.74c-1.19,0-2.1-.15-2.73-.46v-1.12c.41.17.86.31,1.34.41s.96.15,1.44.15c.78,0,1.36-.15,1.75-.44.39-.29.59-.7.59-1.23,0-.35-.07-.63-.21-.85-.14-.22-.37-.43-.7-.61-.33-.19-.82-.4-1.49-.64-.93-.33-1.59-.73-1.99-1.18-.4-.46-.6-1.05-.6-1.78s.29-1.38.87-1.84,1.34-.68,2.3-.68,1.91.18,2.74.55l-.36,1.01c-.82-.35-1.63-.52-2.41-.52-.62,0-1.1.13-1.44.4s-.52.63-.52,1.1c0,.35.06.63.19.85.13.22.34.42.65.61.3.19.77.39,1.39.61,1.05.37,1.77.77,2.16,1.2.39.43.59.98.59,1.67Z"/><path class="cls-2" d="m833.55,522.3l-1.24-3.18h-4.01l-1.23,3.18h-1.18l3.95-10.04h.98l3.93,10.04h-1.2Zm-1.61-4.22l-1.16-3.1c-.15-.39-.31-.87-.46-1.44-.1.44-.24.92-.43,1.44l-1.18,3.1h3.23Z"/><path class="cls-2" d="m843.93,522.3h-1.33l-5.46-8.39h-.05c.07.98.11,1.89.11,2.71v5.68h-1.07v-9.99h1.31l5.45,8.35h.05c0-.12-.03-.52-.06-1.19-.03-.67-.04-1.15-.03-1.43v-5.74h1.09v9.99Z"/><path class="cls-2" d="m852.25,522.3h-5.57v-9.99h5.57v1.03h-4.41v3.22h4.14v1.03h-4.14v3.68h4.41v1.04Z"/><path class="cls-2" d="m863.74,519.64c0,.88-.32,1.57-.96,2.06s-1.5.74-2.6.74c-1.18,0-2.1-.15-2.73-.46v-1.12c.41.17.86.31,1.34.41s.96.15,1.44.15c.77,0,1.36-.15,1.75-.44.39-.29.59-.7.59-1.23,0-.35-.07-.63-.21-.85-.14-.22-.37-.43-.7-.61-.33-.19-.82-.4-1.49-.64-.93-.33-1.59-.73-1.99-1.18-.4-.46-.6-1.05-.6-1.78s.29-1.38.87-1.84,1.34-.68,2.3-.68,1.91.18,2.74.55l-.36,1.01c-.83-.35-1.63-.52-2.41-.52-.62,0-1.1.13-1.44.4s-.52.63-.52,1.1c0,.35.06.63.19.85.13.22.34.42.65.61.3.19.77.39,1.39.61,1.05.37,1.77.77,2.16,1.2.39.43.59.98.59,1.67Z"/><path class="cls-2" d="m868.61,522.44c-1.08,0-1.92-.33-2.52-1-.6-.67-.89-1.61-.89-2.83s.3-2.22.91-2.91c.6-.68,1.46-1.03,2.58-1.03.36,0,.72.04,1.08.12s.64.17.85.27l-.35.96c-.25-.1-.52-.18-.82-.25-.3-.07-.56-.1-.79-.1-1.52,0-2.28.97-2.28,2.91,0,.92.19,1.63.56,2.12.37.49.92.74,1.65.74.62,0,1.26-.13,1.92-.4v1c-.5.26-1.13.39-1.89.39Z"/><path class="cls-2" d="m876.89,522.3l-.23-1.07h-.05c-.37.47-.75.79-1.12.95-.37.17-.83.25-1.39.25-.74,0-1.33-.19-1.75-.57-.42-.38-.63-.93-.63-1.63,0-1.51,1.21-2.31,3.63-2.38l1.27-.04v-.46c0-.59-.13-1.02-.38-1.3-.25-.28-.66-.42-1.21-.42-.62,0-1.33.19-2.12.57l-.35-.87c.37-.2.77-.36,1.21-.47.44-.11.88-.17,1.32-.17.89,0,1.55.2,1.99.59.43.4.65,1.03.65,1.91v5.11h-.84Zm-2.56-.8c.71,0,1.26-.19,1.67-.58.4-.39.6-.93.6-1.63v-.68l-1.13.05c-.9.03-1.55.17-1.95.42-.4.25-.6.63-.6,1.16,0,.41.12.72.37.94.25.21.6.32,1.04.32Z"/><path class="cls-2" d="m885.19,522.3v-4.85c0-.61-.14-1.07-.42-1.37s-.71-.45-1.31-.45c-.78,0-1.36.21-1.72.64s-.55,1.12-.55,2.1v3.93h-1.13v-7.49h.92l.18,1.03h.05c.23-.37.56-.66.98-.86.42-.2.89-.3,1.4-.3.9,0,1.58.22,2.04.65.46.44.68,1.13.68,2.09v4.89h-1.13Z"/><path class="cls-2" d="m893.79,522.3v-4.85c0-.61-.14-1.07-.42-1.37s-.71-.45-1.31-.45c-.78,0-1.36.21-1.72.64s-.55,1.12-.55,2.1v3.93h-1.13v-7.49h.92l.18,1.03h.05c.23-.37.56-.66.98-.86.42-.2.89-.3,1.4-.3.9,0,1.58.22,2.04.65.46.44.68,1.13.68,2.09v4.89h-1.13Z"/><path class="cls-2" d="m900.42,522.44c-1.11,0-1.98-.34-2.62-1.01-.64-.67-.96-1.61-.96-2.81s.3-2.17.89-2.88c.59-.71,1.39-1.07,2.4-1.07.94,0,1.68.31,2.23.93.55.62.82,1.43.82,2.44v.72h-5.16c.02.88.25,1.55.67,2,.42.46,1.02.68,1.78.68.81,0,1.6-.17,2.39-.51v1.01c-.4.17-.78.3-1.14.37-.36.08-.79.11-1.29.11Zm-.31-6.82c-.6,0-1.08.2-1.44.59-.36.39-.57.93-.63,1.63h3.92c0-.72-.16-1.26-.48-1.64-.32-.38-.77-.57-1.37-.57Z"/><path class="cls-2" d="m908.53,514.67c.33,0,.63.03.9.08l-.16,1.05c-.31-.07-.58-.1-.82-.1-.61,0-1.12.25-1.55.74-.43.49-.65,1.1-.65,1.84v4.02h-1.13v-7.49h.94l.13,1.39h.05c.28-.49.61-.86,1-1.13s.82-.4,1.29-.4Z"/><path class="cls-2" d="m915.66,520.26c0,.7-.26,1.24-.78,1.61s-1.25.57-2.19.57c-.99,0-1.77-.16-2.32-.47v-1.05c.36.18.75.33,1.16.43.41.11.81.16,1.19.16.59,0,1.05-.09,1.37-.28.32-.19.48-.48.48-.86,0-.29-.13-.54-.38-.75-.25-.21-.75-.45-1.48-.73-.7-.26-1.19-.49-1.49-.68-.29-.19-.51-.41-.66-.66-.14-.25-.21-.54-.21-.88,0-.61.25-1.09.75-1.45.5-.35,1.18-.53,2.04-.53.81,0,1.6.16,2.37.49l-.4.92c-.75-.31-1.43-.46-2.04-.46-.54,0-.94.08-1.22.25s-.41.4-.41.7c0,.2.05.37.15.51.1.14.27.28.5.4s.67.31,1.31.55c.89.32,1.49.65,1.8.98.31.33.47.74.47,1.24Z"/><g id="Programming-Apps-Websites_Coding-Files_js-1"><g id="Group_372"><g id="js-1"><path id="Rectangle-path_196" class="cls-7" d="m94.65,260.16c0-.82.66-1.48,1.48-1.48h31.11c.82,0,1.48.66,1.48,1.48v31.11c0,.82-.66,1.48-1.48,1.48h-31.11c-.82,0-1.48-.66-1.48-1.48v-31.11Z"/><path id="Shape_2478" class="cls-7" d="m109.46,274.98v8.89c0,1.64-1.33,2.96-2.96,2.96s-2.96-1.33-2.96-2.96"/><path id="Shape_2479" class="cls-7" d="m118.35,274.98h-3.18c-1.27,0-2.38.88-2.67,2.12-.29,1.24.31,2.52,1.44,3.09l2.89,1.44c1.14.57,1.74,1.85,1.45,3.09s-1.4,2.12-2.67,2.12h-3.18"/></g></g></g><g id="Programming-Apps-Websites_Apps_app-window-badge"><g id="Group_181"><g id="app-window-badge"><path id="Shape_1208" class="cls-4" d="m83.32,284.99h-29.71c-3.65,0-6.6-2.96-6.6-6.6v-52.81c0-3.65,2.96-6.6,6.6-6.6h62.72c3.65,0,6.6,2.96,6.6,6.6v23.11"/><path id="Shape_1209" class="cls-4" d="m58.56,226.4c.46,0,.83.37.83.83s-.37.83-.83.83-.83-.37-.83-.83.37-.83.83-.83"/><path id="Shape_1210" class="cls-4" d="m47.01,235.48h75.92"/><path id="Shape_1211" class="cls-4" d="m68.46,226.4c.46,0,.83.37.83.83s-.37.83-.83.83-.83-.37-.83-.83.37-.83.83-.83"/><path id="Shape_1212" class="cls-4" d="m78.36,226.4c.46,0,.83.37.83.83s-.37.83-.83.83-.83-.37-.83-.83.37-.83.83-.83"/></g></g></g><g id="Arrows-Diagrams_Arrows_arrow-right"><g id="Group_73"><g id="Light_73"><path id="Shape_336" class="cls-6" d="m475.64,251.19l-11.64,10.25c-.22.19-.34.46-.34.75s.12.56.34.75l11.64,10.25"/></g></g></g><g id="Arrows-Diagrams_Arrows_arrow-right-2"><g id="Group_73-2"><g id="Light_73-2"><path id="Shape_335" class="cls-6" d="m303.23,255.86h-22.49"/><path id="Shape_336-2" class="cls-6" d="m291.25,266.86l11.64-10.25c.22-.19.34-.46.34-.75s-.12-.56-.34-.75l-11.64-10.25"/></g></g></g><g id="Arrows-Diagrams_Arrows_arrow-right-3"><g id="Group_73-3"><g id="Light_73-3"><path id="Shape_335-2" class="cls-6" d="m151.72,255.86h22.49"/><path id="Shape_336-3" class="cls-6" d="m163.7,244.86l-11.64,10.25c-.22.19-.34.46-.34.75s.12.56.34.75l11.64,10.25"/></g></g></g><rect class="cls-5" x="824.75" y="424.53" width="60.73" height="31.52" rx="4.17" ry="4.17"/><rect class="cls-5" x="830.07" y="448.22" width="50.03" height="3.33"/><circle class="cls-5" cx="862.01" cy="436.5" r="1.55"/><circle class="cls-5" cx="875.9" cy="436.5" r="1.55"/><circle class="cls-5" cx="868.96" cy="436.5" r="1.55"/><path id="Shape_1148-3" class="cls-7" d="m872.18,427.26h-33.44v-26.01h26.01l7.43,7.43v18.58h0Z"/><path id="Shape_1147-3" class="cls-4" d="m830.83,427.26h49.48"/><rect class="cls-5" x="331.86" y="221.6" width="73.57" height="68.53" rx="12" ry="12"/><g id="Files-Folders_Common-Files_common-file-settings-1"><g id="Group_35"><g id="common-file-settings-1"><path id="Shape_114" class="cls-7" d="m372.75,237.14l1.42,4.69c.49,1.62,2.14,2.58,3.79,2.2l4.75-1.1c1.85-.42,3.76.41,4.71,2.06.95,1.64.71,3.72-.58,5.1l-3.32,3.58c-1.15,1.24-1.15,3.16,0,4.4l3.32,3.58c1.29,1.39,1.53,3.45.58,5.1-.94,1.64-2.85,2.48-4.7,2.06l-4.75-1.1c-1.64-.38-3.3.58-3.79,2.2l-1.42,4.69c-.55,1.81-2.22,3.06-4.11,3.06s-3.57-1.24-4.11-3.06l-1.44-4.69c-.49-1.62-2.14-2.58-3.79-2.2l-4.75,1.1c-1.85.42-3.76-.41-4.71-2.06-.95-1.64-.71-3.72.58-5.1l3.32-3.58c1.15-1.24,1.15-3.16,0-4.4l-3.32-3.58c-1.29-1.39-1.53-3.46-.58-5.1.95-1.64,2.86-2.48,4.71-2.06l4.75,1.1c1.64.38,3.3-.58,3.79-2.2l1.42-4.69c.55-1.81,2.22-3.06,4.11-3.06s3.57,1.24,4.11,3.06Z"/><path id="Oval_12" class="cls-7" d="m368.64,260.7c2.67,0,4.84-2.17,4.84-4.84s-2.17-4.84-4.84-4.84-4.84,2.17-4.84,4.84,2.17,4.84,4.84,4.84Z"/></g></g></g><g id="Arrows-Diagrams_Arrows_arrow-right-4"><g id="Group_73-4"><g id="Light_73-4"><path id="Shape_336-4" class="cls-6" d="m673.17,103.7l11.64-10.25c.22-.19.34-.46.34-.75s-.12-.56-.34-.75l-11.64-10.25"/></g></g></g><polyline class="cls-6" points="465.02 262.19 642.02 262.19 642.02 92.7 685.16 92.7"/><polyline class="cls-6" points="642.02 262.19 642.02 430.93 684.85 430.93"/><g id="Arrows-Diagrams_Arrows_arrow-right-5"><g id="Group_73-5"><g id="Light_73-5"><path id="Shape_336-5" class="cls-6" d="m673.17,441.48l11.64-9.7c.22-.18.34-.44.34-.71s-.12-.53-.34-.71l-11.64-9.7"/></g></g></g></g></svg>